<svg viewBox="0 0 200 200" xmlns="http://www.w3.org/2000/svg">
  <path fill="#A7F0BA" d="M33.9,-61.8C44.4,-52.6,53.9,-44.6,64.1,-34.5C74.4,-24.4,85.3,-12.2,83.9,-0.8C82.4,10.5,68.5,21,56.9,28.8C45.4,36.6,36.2,41.6,27.1,46.9C18,52.2,9,57.7,0,57.8C-9.1,57.9,-18.1,52.5,-26.9,47C-35.6,41.5,-44,35.8,-54.9,28C-65.9,20.1,-79.5,10.1,-78.6,0.5C-77.8,-9,-62.4,-18.1,-54.7,-31.6C-46.9,-45.1,-46.9,-63.2,-39.1,-74C-31.2,-84.9,-15.6,-88.6,-2,-85.1C11.7,-81.7,23.3,-71.1,33.9,-61.8Z" transform="translate(100 100)" />
</svg>